HIERARCHY
ROOT Hips
{
  OFFSET -35.2597 29.1586 114.425
  CHANNELS 6 Xposition Yposition Zposition Zrotation Xrotation Yrotation
  JOINT LeftUpLeg
  {
    OFFSET 8.64259 1.95398 -2.38835
    CHANNELS 3 Zrotation Xrotation Yrotation
    JOINT LeftLeg
    {
      OFFSET 43.7702 0 0
      CHANNELS 3 Zrotation Xrotation Yrotation
      JOINT LeftFoot
      {
        OFFSET 40.6238 0 0
        CHANNELS 3 Zrotation Xrotation Yrotation
        JOINT LeftToeBase
        {
          OFFSET 12.7242 0 0
          CHANNELS 3 Zrotation Xrotation Yrotation
          End Site
          {
            OFFSET 0 0 0
          }
        }
      }
    }
  }
  JOINT RightUpLeg
  {
    OFFSET -8.2249 1.95398 -2.59336
    CHANNELS 3 Zrotation Xrotation Yrotation
    JOINT RightLeg
    {
      OFFSET 43.5653 0 0
      CHANNELS 3 Zrotation Xrotation Yrotation
      JOINT RightFoot
      {
        OFFSET 40.6238 0 0
        CHANNELS 3 Zrotation Xrotation Yrotation
        JOINT RightToeBase
        {
          OFFSET 12.7242 0 0
          CHANNELS 3 Zrotation Xrotation Yrotation
          End Site
          {
            OFFSET 0 0 0
          }
        }
      }
    }
  }
  JOINT Spine
  {
    OFFSET 0.165834 0.87714 6.61349
    CHANNELS 3 Zrotation Xrotation Yrotation
    JOINT Spine1
    {
      OFFSET 7.38963 1.71661e-005 0
      CHANNELS 3 Zrotation Xrotation Yrotation
      JOINT Spine2
      {
        OFFSET 11.9445 1.14441e-005 0
        CHANNELS 3 Zrotation Xrotation Yrotation
        JOINT Spine3
        {
          OFFSET 14.7254 4.19617e-005 0
          CHANNELS 3 Zrotation Xrotation Yrotation
          JOINT Spine4
          {
            OFFSET 10.9679 0 0
            CHANNELS 3 Zrotation Xrotation Yrotation
            JOINT RightShoulder
            {
              OFFSET 2.46616 -1.6653 3.69651
              CHANNELS 3 Zrotation Xrotation Yrotation
              JOINT RightArm
              {
                OFFSET 13.0012 0 0
                CHANNELS 3 Zrotation Xrotation Yrotation
                JOINT RightForeArm
                {
                  OFFSET 28.7848 1.62311e-005 0
                  CHANNELS 3 Zrotation Xrotation Yrotation
                  JOINT RightHand
                  {
                    OFFSET 26.5688 1.62095e-005 0
                    CHANNELS 3 Zrotation Xrotation Yrotation
                    End Site
                    {
                      OFFSET 0 0 0
                    }
                  }
                }
              }
            }
            JOINT LeftShoulder
            {
              OFFSET 2.38034 -1.29275 -3.7523
              CHANNELS 3 Zrotation Xrotation Yrotation
              JOINT LeftArm
              {
                OFFSET 16.3182 6.07031e-005 0
                CHANNELS 3 Zrotation Xrotation Yrotation
                JOINT LeftForeArm
                {
                  OFFSET 27.0901 0 0
                  CHANNELS 3 Zrotation Xrotation Yrotation
                  JOINT LeftHand
                  {
                    OFFSET 24.5451 1.51738e-005 0
                    CHANNELS 3 Zrotation Xrotation Yrotation
                    End Site
                    {
                      OFFSET 0 0 0
                    }
                  }
                }
              }
            }
            JOINT Neck
            {
              OFFSET 5.0226 -0.0266342 0
              CHANNELS 3 Zrotation Xrotation Yrotation
              JOINT Head
              {
                OFFSET 6.69364 2.86102e-005 0
                CHANNELS 3 Zrotation Xrotation Yrotation
                End Site
                {
                  OFFSET 0 0 0
                }
              }
            }
          }
        }
      }
    }
  }
}
MOTION
Frames:	6
Frame Time:	0.0416667
34.1674 9.0905 42.4162 4.15305 -9.88915 -1.07122 -176.143 -7.61173 91.2908 -20.6336 37.0648 4.26097 89.931 23.354 2.04025 11.5975 -12.0463 3.88593 179.362 -14.1207 93.1214 -10.3409 -19.6697 -6.73354 87.0532 -21.5434 -4.58847 41.1039 -4.31535 -4.66654 1.2678 9.26728 -91.2044 8.35558 1.99947 -2.50228 -3.31642 1.88744 -2.58781 -25.8528 2.65894 -1.78579 -5.8401 2.65894 -1.78579 106.769 14.8376 -47.2651 21.5398 -4.27402 15.0204 -16.445 6.53711 -120.257 72.4632 -53.318 -73.3022 -69.4144 -22.62 115.379 -4.68507 -0.255518 -15.5889 72.1825 -44.312 -105.35 -61.9686 32.9136 -59.0373 67.7955 3.46148 10.9051 -6.80789 -5.35703 1.94275 
34.1555 9.08381 42.3779 4.06161 -9.92418 -1.04258 -176.035 -7.47545 91.3555 -20.9605 36.7558 4.17645 90.2339 23.4248 1.747 11.2835 -11.8402 3.34168 179.512 -14.272 93.2942 -10.3938 -19.8464 -6.85517 87.6152 -22.2965 -5.29288 39.6219 -3.88828 -3.31602 1.28214 9.25735 -91.1909 8.37579 2.03376 -2.47844 -3.29612 1.92274 -2.5655 -25.8332 2.68448 -1.75273 -5.82061 2.68449 -1.75274 106.799 14.6762 -47.4186 21.6251 -3.78011 16.1974 -15.7335 6.30609 -120.853 74.7301 -53.2753 -71.0866 -69.5053 -22.4116 115.243 -5.07449 -0.699868 -13.7739 71.6863 -44.9704 -105.868 -61.0278 32.1713 -58.8287 67.7803 3.31144 10.7838 -6.97678 -5.40144 1.91062 
34.1685 9.09437 42.3776 4.12202 -9.86798 -1.02967 -176.075 -7.35347 91.3385 -21.0677 36.8029 4.21303 90.1862 23.3808 1.74381 12.669 -11.9286 4.66063 179.602 -14.2044 93.3581 -10.4015 -19.793 -6.9138 87.4388 -22.2155 -5.43439 40.0252 -4.01796 -3.58308 1.27076 9.2303 -91.1842 8.42949 2.0134 -2.46559 -3.24239 1.90296 -2.55177 -25.7793 2.6612 -1.7466 -5.76674 2.6612 -1.7466 106.788 14.629 -47.605 21.6115 -4.31936 15.009 -18.2877 7.42351 -119.812 68.3108 -53.5371 -77.6972 -69.5954 -22.5843 114.997 -4.98393 -0.615745 -13.7729 72.2075 -45.0653 -105.509 -61.3255 32.4108 -58.908 67.6268 3.30571 10.7496 -7.09219 -5.38702 2.15124 
34.1554 9.09661 42.4363 4.28709 -9.81767 -1.07012 -176.084 -7.38877 91.347 -20.789 36.909 4.16765 90.1526 23.256 1.51231 12.0432 -12.3841 4.72937 179.663 -14.0401 93.3373 -10.4035 -19.7026 -6.96973 86.6964 -21.3918 -4.95407 41.744 -4.5214 -5.13508 1.23534 9.20561 -91.1788 8.47809 1.94448 -2.4522 -3.19389 1.83471 -2.53535 -25.73 2.59144 -1.75455 -5.7173 2.59145 -1.75456 106.786 14.5184 -47.8604 21.6622 -4.34144 14.9691 -18.8157 7.63999 -119.586 66.8835 -53.5411 -79.1749 -69.6799 -22.578 114.816 -4.37211 0.512 -17.1705 74.6563 -43.4581 -103.397 -62.6795 34.4463 -60.6291 67.4663 3.22983 10.8269 -7.13452 -5.46862 1.81367 
34.1543 9.10097 42.3902 4.14439 -9.81869 -1.05788 -176.095 -7.31312 91.3052 -21.0429 36.8806 4.21088 90.0064 23.359 1.9733 11.8466 -11.5972 3.49163 179.784 -14.1538 93.4469 -10.4355 -19.7176 -7.07127 87.3325 -22.0049 -5.20164 39.9569 -3.82777 -4.49143 1.25446 9.18446 -91.1631 8.52088 1.98908 -2.42524 -3.15098 1.88046 -2.51039 -25.688 2.62589 -1.7154 -5.67538 2.62589 -1.71542 106.779 14.3505 -48.2794 21.7007 -3.99876 16.4987 -17.6756 7.2784 -120.423 70.5437 -53.8123 -75.7662 -69.7932 -22.4895 114.595 -5.14616 -0.668166 -12.3546 72.5355 -45.4622 -105.359 -60.5093 32.1935 -59.3702 67.3042 3.2089 10.7327 -7.1529 -5.39841 1.84599 
34.1645 9.09416 42.3616 4.19803 -9.87261 -1.07809 -176.111 -7.33741 91.2856 -21.1614 36.8257 4.24115 90.1354 23.4205 1.9109 11.1721 -10.8645 1.93718 179.816 -14.2609 93.4833 -10.45 -19.7247 -7.12958 87.8477 -22.5734 -5.56956 39.0419 -3.60518 -3.45879 1.23225 9.16756 -91.1561 8.55408 1.9475 -2.40981 -3.11776 1.83959 -2.49315 -25.6544 2.58159 -1.7132 -5.64171 2.5816 -1.7132 106.739 14.3772 -48.5059 21.7479 -4.29619 16.2888 -18.3523 7.51229 -119.972 68.5533 -53.6983 -77.6406 -69.9002 -22.5774 114.338 -4.99048 -0.309396 -13.1287 73.8038 -45.0928 -104.351 -60.7468 33.0332 -60.4061 67.1475 3.21398 10.6652 -7.33305 -5.32135 1.74958 
